<svg xmlns="http://www.w3.org/2000/svg" fill="currentColor" viewBox="0 0 24 24">
  <path d="M12 .5C5.65.5.5 5.65.5 12c0 5.1 3.29 9.41 7.86 10.94.58.11.79-.25.79-.56v-2c-3.2.7-3.87-1.39-3.87-1.39-.53-1.34-1.3-1.7-1.3-1.7-1.06-.72.08-.71.08-.71 1.17.08 1.79 1.21 1.79 1.21 1.04 1.78 2.72 1.27 3.38.97.1-.76.41-1.27.74-1.56-2.55-.29-5.23-1.28-5.23-5.71 0-1.26.45-2.29 1.2-3.1-.12-.29-.52-1.46.11-3.05 0 0 .97-.31 3.17 1.19a11 11 0 0 1 5.77 0c2.2-1.5 3.17-1.19 3.17-1.19.63 1.59.23 2.76.11 3.05.75.81 1.2 1.84 1.2 3.1 0 4.44-2.69 5.41-5.25 5.69.42.36.79 1.07.79 2.15v3.18c0 .31.21.67.8.56A10.99 10.99 0 0 0 23.5 12C23.5 5.65 18.35.5 12 .5z"/>
</svg>
