<svg version="1.1" id="Layer_1" xmlns="http://www.w3.org/2000/svg" xmlns:xlink="http://www.w3.org/1999/xlink" x="0px" y="0px"
	 width="100%" viewBox="0 0 816 688" enable-background="new 0 0 816 688" xml:space="preserve">
<path fill="#000000" opacity="1.000000" stroke="none" 
	d="
M549.205933,287.097534 
	C544.170532,296.868011 539.296326,306.302673 534.090881,316.378510 
	C539.949524,318.513916 545.544861,317.734344 550.990967,317.273193 
	C556.272705,316.825989 561.489197,315.636871 566.744080,314.838013 
	C580.288025,312.779175 587.760986,321.213531 583.491211,334.409637 
	C578.005615,351.363190 566.103577,362.140411 549.108276,366.988098 
	C537.386475,370.331543 525.356262,371.959137 513.084167,371.222351 
	C506.893860,370.850708 506.008667,371.422607 505.557587,377.600677 
	C504.490997,392.208191 502.270355,406.665161 500.308472,421.156281 
	C499.327515,428.402100 498.115631,435.620087 495.780792,442.588898 
	C491.315155,455.917297 482.916901,465.991058 470.020264,471.592926 
	C454.447418,478.357178 438.296265,482.931671 421.044769,479.409851 
	C399.485291,475.008636 387.109619,460.307068 384.526947,438.276459 
	C382.430542,420.394104 381.387299,402.492188 380.766357,384.533875 
	C380.732544,383.555725 380.551697,382.582703 380.406128,381.319794 
	C379.599304,381.319794 378.889496,381.117920 378.374023,381.349182 
	C363.100037,388.201691 347.711426,385.266418 332.348145,381.853912 
	C326.162415,380.479889 320.018982,378.801239 315.048187,374.546967 
	C313.182648,372.950287 311.689331,373.568237 310.204041,374.880493 
	C296.725647,386.789215 280.761139,382.446503 269.878265,370.951813 
	C259.965057,360.481323 253.248398,348.054016 247.486816,335.096313 
	C233.988297,304.738373 224.786026,272.994080 217.443085,240.645477 
	C214.315857,226.868896 210.907928,213.082428 210.118423,199.013702 
	C208.582840,171.649933 210.877625,144.951782 229.952118,122.875153 
	C241.863953,109.088524 257.616486,102.265427 275.214386,99.769829 
	C301.031464,96.108643 326.245880,100.022461 351.046265,107.263725 
	C354.102142,108.155983 356.755096,108.138680 359.652985,106.655098 
	C377.661316,97.435799 397.024963,95.162033 416.478882,98.799629 
	C429.930267,101.314850 441.970001,97.361870 454.607910,95.338715 
	C488.094055,89.978020 520.355774,92.559784 549.688538,111.606308 
	C559.407288,117.916962 567.751526,125.821075 574.795532,135.023438 
	C580.283569,142.193161 581.926636,150.658813 582.324341,159.426392 
	C583.763977,191.167145 575.182129,220.991684 564.771118,250.448563 
	C560.382812,262.864807 555.185242,274.947174 549.205933,287.097534 
M431.786896,469.620941 
	C437.837494,469.972473 443.733795,468.812927 449.566315,467.512451 
	C471.156219,462.698730 484.922150,450.279785 488.921661,427.752655 
	C492.609528,406.981171 494.825531,386.026672 497.511322,365.131897 
	C498.071106,360.777008 499.754242,358.907318 503.803467,359.744568 
	C511.305634,361.295837 518.761597,360.361267 526.179810,359.587158 
	C542.725342,357.860535 557.444275,351.970184 569.064087,339.573303 
	C572.245789,336.178864 574.181885,332.312073 571.735535,327.823181 
	C569.294556,323.344147 564.861206,322.913818 560.377014,323.543457 
	C556.107300,324.143005 551.903931,325.202850 547.640930,325.864380 
	C539.402222,327.142975 531.164246,328.227264 522.896423,325.820251 
	C518.739136,324.609985 518.035828,322.830902 520.472351,319.040680 
	C536.306458,294.409180 548.780823,268.136810 558.053955,240.370224 
	C566.420288,215.318726 572.780334,189.866989 570.580322,163.140244 
	C569.944824,155.420761 568.592041,147.759705 563.288391,141.289001 
	C543.128235,116.692551 516.126587,106.968925 485.496216,105.485733 
	C469.285919,104.700783 453.305756,107.097443 437.708527,111.634071 
	C434.877014,112.457649 432.101501,112.670944 429.332977,112.117043 
	C422.124725,110.674843 414.847626,110.081596 407.523865,109.989624 
	C391.901581,109.793411 376.524261,110.749275 363.243866,120.447731 
	C360.667572,122.329147 358.235260,122.073067 355.301086,121.122063 
	C329.932648,112.899841 304.243408,107.715622 277.345245,112.241692 
	C249.676590,116.897415 232.085205,132.725266 225.567307,159.529022 
	C222.959702,170.252350 222.071899,181.124863 221.942612,192.153915 
	C221.714050,211.650726 226.110306,230.429840 230.465790,249.174973 
	C237.509979,279.491699 245.879318,309.427551 259.954132,337.408844 
	C264.986267,347.412903 270.711395,356.975647 279.414459,364.367981 
	C288.514099,372.097107 298.523712,372.552246 308.283203,365.733978 
	C312.305054,362.924194 315.351440,359.179932 318.536682,355.552826 
	C326.450165,346.541382 334.339172,337.508240 342.303070,328.541565 
	C343.577759,327.106415 344.893616,324.828613 347.155457,325.678345 
	C353.596405,328.098145 360.227142,329.863708 367.087158,331.232391 
	C362.008148,342.066772 352.852142,345.305206 342.755432,347.378357 
	C337.765442,348.402954 332.539246,349.120667 328.293610,352.414825 
	C322.831177,356.653046 322.511963,362.138489 327.486450,366.874146 
	C330.049286,369.313904 332.994751,371.301697 336.364410,372.333893 
	C354.066650,377.756592 371.141266,377.471497 386.957581,366.432068 
	C388.234436,365.540894 389.280945,363.934937 391.424774,364.501129 
	C392.182068,365.616241 392.081055,366.947784 392.094360,368.254944 
	C392.295868,388.056244 391.797821,407.886230 394.338257,427.596497 
	C397.176453,449.617310 406.504974,466.477264 431.786896,469.620941 
z"/>
<path fill="#000000" opacity="1.000000" stroke="none" 
	d="
M582.827637,617.054077 
	C566.157593,617.016174 551.621521,612.683105 543.134277,597.809570 
	C533.896973,581.621460 533.963135,564.475403 543.024963,548.223694 
	C551.090942,533.758179 565.094604,529.161560 580.784729,529.286499 
	C593.305176,529.386230 604.838257,532.459839 613.487061,542.541687 
	C619.578308,549.642212 622.896423,557.856079 623.263062,567.091309 
	C623.598572,575.543640 623.930237,584.041565 620.448914,592.170105 
	C618.315369,597.151733 615.290588,601.441467 611.533142,605.489990 
	C613.682556,608.822510 616.816833,610.757935 619.629761,612.974426 
	C622.019592,614.857483 622.811340,616.630310 620.554871,619.158875 
	C618.601135,621.348328 616.700012,623.150879 614.085632,620.126526 
	C608.555054,613.728333 602.335449,611.344177 594.060059,615.278137 
	C590.904724,616.778137 586.902161,616.495728 582.827637,617.054077 
M556.723083,545.218689 
	C548.532776,553.243164 546.090942,563.262573 546.312378,574.349609 
	C546.816711,599.612793 566.331726,613.933411 590.800354,607.889648 
	C617.513550,601.291382 619.959351,564.894714 606.626282,548.633606 
	C594.798401,534.208313 573.163879,532.577942 556.723083,545.218689 
z"/>
<path fill="#000000" opacity="1.000000" stroke="none" 
	d="
M529.891602,540.307373 
	C532.745178,544.840149 533.671875,549.476685 533.619019,554.343140 
	C526.479736,556.748657 524.971558,556.003052 523.168335,549.199951 
	C521.724976,543.754700 518.284607,540.177856 512.966736,538.515137 
	C505.649200,536.226990 498.164032,536.326538 490.770172,537.871887 
	C483.103455,539.474182 479.500092,543.829590 479.308105,550.836609 
	C479.103394,558.310059 481.921631,562.398438 489.720673,564.489746 
	C499.492584,567.110107 509.457458,569.009644 519.233337,571.616760 
	C532.280457,575.096436 536.913269,581.467651 536.294128,594.190674 
	C535.745911,605.456055 528.451233,613.199097 516.698853,615.416077 
	C505.734802,617.484436 494.857300,617.525330 484.229889,614.026123 
	C473.206299,610.396606 467.230072,601.731140 467.057892,590.210815 
	C467.028351,588.234863 467.567413,586.758850 469.689972,586.841125 
	C472.151215,586.936584 475.168854,585.501221 476.726349,588.854980 
	C476.865387,589.154358 476.993652,589.480347 477.026611,589.804199 
	C477.828094,597.676392 481.075012,604.062012 488.929504,606.709961 
	C498.965668,610.093323 509.214111,610.533142 519.089783,606.083679 
	C524.181213,603.789795 527.416382,597.000977 526.553711,591.420959 
	C525.608093,585.304993 522.366455,580.992676 516.054810,579.523315 
	C505.385773,577.039551 494.588837,575.008484 484.068146,572.007324 
	C468.752686,567.638306 464.095947,547.500244 475.520416,536.264404 
	C479.787354,532.067932 485.336456,530.855896 491.010864,530.231140 
	C500.983337,529.133240 510.912781,528.879944 520.482239,532.701782 
	C524.270142,534.214600 527.603638,536.318420 529.891602,540.307373 
z"/>
<path fill="#000000" opacity="1.000000" stroke="none" 
	d="
M340.400513,607.927979 
	C330.296692,602.320129 326.550140,591.748596 329.765259,578.747681 
	C332.064484,569.450317 339.763733,563.941895 350.647766,563.619751 
	C357.294189,563.423035 363.607849,564.147461 368.291962,568.979248 
	C370.300690,568.556396 370.157959,567.126099 370.665131,566.159790 
	C371.696838,564.194092 373.478668,564.760315 375.068695,564.875916 
	C376.754181,564.998474 377.235535,566.282166 377.231354,567.709961 
	C377.187012,582.849243 377.862274,598.041565 376.795746,613.110046 
	C376.012238,624.180420 369.351837,628.692688 355.747559,630.069885 
	C350.922699,630.558228 346.105774,629.758545 341.498138,628.341675 
	C335.149292,626.389404 331.547424,622.055603 331.201355,614.931030 
	C334.658691,613.403076 337.323975,613.075073 338.857452,617.612976 
	C339.989838,620.963928 342.731018,622.774414 346.207458,623.723328 
	C351.382233,625.135742 356.480194,624.820007 361.467346,623.290771 
	C368.295349,621.196899 371.977356,612.950073 369.527710,604.680176 
	C360.473633,610.560852 350.871429,612.096252 340.400513,607.927979 
M346.230469,570.513672 
	C338.417847,573.571167 335.954071,579.660522 336.151276,587.572510 
	C336.493805,601.316772 349.877502,609.104553 361.938721,602.426819 
	C369.687317,598.136780 372.631165,588.181702 368.912109,578.845215 
	C365.782532,570.988525 356.846497,567.511230 346.230469,570.513672 
z"/>
<path fill="#000000" opacity="1.000000" stroke="none" 
	d="
M149.027008,603.816040 
	C149.014191,584.515564 149.042816,565.690979 148.947556,546.867065 
	C148.929962,543.388489 149.574265,540.981873 153.759537,541.072327 
	C164.892960,541.313110 176.050903,541.079712 187.156677,541.743896 
	C197.198990,542.344421 203.473618,550.588379 203.266571,561.652100 
	C203.062943,572.533936 195.809143,580.919434 185.915741,581.298950 
	C178.928497,581.566956 171.923401,581.342163 164.926849,581.402954 
	C158.578796,581.458130 157.452133,582.573853 157.342056,589.067932 
	C157.248917,594.563782 157.319046,600.062317 157.307785,605.559692 
	C157.302322,608.226624 157.746048,611.028320 153.623230,611.217834 
	C149.491470,611.407715 148.982040,608.933533 149.032104,605.791565 
	C149.040054,605.291870 149.028381,604.791992 149.027008,603.816040 
M187.247223,548.895569 
	C178.848312,547.389587 170.367447,548.236267 161.924347,548.064514 
	C158.577209,547.996460 157.323746,550.172180 157.332672,553.297424 
	C157.348770,558.943359 157.439072,564.592529 157.279938,570.234192 
	C157.182022,573.705139 158.724625,575.009583 162.036087,574.965149 
	C168.842346,574.873840 175.655823,575.071289 182.455887,574.840942 
	C188.949066,574.621033 193.480865,571.044678 194.579758,565.794617 
	C196.200714,558.050537 194.059006,552.657776 187.247223,548.895569 
z"/>
<path fill="#000000" opacity="1.000000" stroke="none" 
	d="
M628.670105,609.824219 
	C628.665771,585.678833 628.656677,562.014832 628.666748,538.350830 
	C628.669861,531.181152 628.875549,531.035767 636.631531,532.056396 
	C637.833923,533.823120 637.311523,535.880554 637.315552,537.814331 
	C637.359192,558.811829 637.469543,579.810852 637.251648,600.806213 
	C637.203491,605.442505 638.667725,606.877014 643.238403,606.794312 
	C656.732544,606.550110 670.233765,606.700684 683.732239,606.698730 
	C686.428284,606.698364 689.185303,606.330933 689.263916,610.486023 
	C689.341553,614.591370 686.856140,615.067505 683.746948,615.068054 
	C667.083252,615.071228 650.419373,615.038025 633.756042,615.120728 
	C630.322998,615.137756 628.227905,614.173767 628.670105,609.824219 
z"/>
<path fill="#000000" opacity="1.000000" stroke="none" 
	d="
M416.553558,570.594299 
	C427.451324,561.044434 444.890442,561.158508 453.542847,570.629211 
	C454.763458,571.965271 455.867371,573.493958 456.672913,575.109192 
	C462.409027,586.611145 460.320312,590.034973 447.795624,589.956543 
	C439.968964,589.907532 432.141266,589.890808 424.314972,589.962830 
	C418.491852,590.016418 416.880219,592.738281 419.699402,597.907166 
	C422.829590,603.646240 427.814117,606.411011 434.352264,606.719727 
	C441.040466,607.035645 446.722321,605.270142 449.827698,598.961975 
	C451.784790,594.986389 454.278870,594.604675 458.141724,596.371216 
	C457.318115,603.041016 453.430298,607.265259 447.729614,609.914246 
	C436.584991,615.093018 418.393188,613.313110 412.809509,598.709717 
	C409.085693,588.970642 409.693359,579.461609 416.553558,570.594299 
M421.245453,584.612732 
	C430.028534,584.626526 438.813324,584.542419 447.593964,584.695923 
	C451.903320,584.771240 452.344482,582.641479 451.152802,579.337830 
	C448.776825,572.750732 441.791870,568.939941 432.931885,569.322266 
	C426.278961,569.609314 420.805298,574.112488 418.909973,580.747192 
	C418.405914,582.511719 418.044708,584.046143 421.245453,584.612732 
z"/>
<path fill="#000000" opacity="1.000000" stroke="none" 
	d="
M258.654907,577.004761 
	C259.101593,569.730530 261.936646,566.244751 268.533661,564.679199 
	C275.435333,563.041321 282.391144,562.966797 289.256287,564.766846 
	C294.497681,566.141052 297.982361,569.527710 299.100067,574.954956 
	C299.418671,576.502014 299.894623,578.585571 297.621460,579.085815 
	C295.795380,579.487488 293.893402,579.917297 292.513763,577.458923 
	C288.207672,569.786133 279.195374,566.700623 270.993256,569.954163 
	C267.956818,571.158508 265.264038,573.028442 265.419617,576.818787 
	C265.567780,580.428711 268.248657,582.072021 271.290649,582.695984 
	C277.135345,583.894653 283.090668,584.554199 288.934692,585.755615 
	C293.348724,586.663086 297.782257,587.919312 299.962372,592.549438 
	C303.409424,599.870422 300.320221,607.614441 292.531616,610.377808 
	C283.775391,613.484558 274.851257,613.199585 266.085815,610.309021 
	C261.074524,608.656372 258.309082,604.866089 257.350067,599.689880 
	C257.030884,597.967102 256.511414,596.135071 258.976807,595.879456 
	C260.807983,595.689514 263.380951,594.756348 264.123016,597.406677 
	C265.285797,601.559631 267.209869,604.714050 271.669708,605.796509 
	C277.615784,607.239685 283.563782,607.372986 289.327515,605.240356 
	C292.402924,604.102356 293.929016,601.507507 293.716248,598.110413 
	C293.508026,594.786133 291.481049,592.945068 288.440826,592.330078 
	C281.452454,590.916565 274.394196,589.836426 267.430023,588.319275 
	C261.256439,586.974304 259.053284,583.998718 258.654907,577.004761 
z"/>
<path fill="#000000" opacity="1.000000" stroke="none" 
	d="
M225.251221,612.314941 
	C212.432938,610.749878 205.449860,603.742065 203.889130,591.330017 
	C202.440582,579.810364 207.806839,568.600403 217.284149,565.438354 
	C227.260544,562.109802 237.638855,561.800659 245.952194,569.362244 
	C254.044525,576.722778 254.423340,586.656677 251.859879,596.649536 
	C249.473969,605.950256 241.643646,611.819824 231.694901,612.291321 
	C229.704071,612.385681 227.705505,612.316589 225.251221,612.314941 
M237.761017,604.449890 
	C241.865768,602.049927 244.352264,598.515930 245.372238,593.867554 
	C247.743454,583.061096 244.006088,573.524414 235.895401,570.638428 
	C228.881134,568.142395 221.987640,568.519104 216.325897,573.851074 
	C210.129028,579.686890 210.184235,587.363892 212.062042,594.761169 
	C214.746170,605.334778 224.527100,608.997253 237.761017,604.449890 
z"/>
<path fill="#000000" opacity="1.000000" stroke="none" 
	d="
M307.405121,570.620056 
	C304.817230,570.052307 304.548950,568.483276 304.898285,566.690735 
	C305.224091,565.018799 306.656036,564.768433 308.003052,564.804199 
	C311.183563,564.888733 311.950623,563.092102 311.884155,560.345764 
	C311.827789,558.017700 311.916473,555.680237 312.063995,553.354736 
	C312.215973,550.959534 313.524261,549.776428 315.999146,549.892578 
	C318.289917,549.999939 319.270355,551.215210 319.262909,553.410583 
	C319.258972,554.576660 319.287537,555.742920 319.291199,556.909058 
	C319.312744,563.781006 319.303497,563.843811 326.192780,564.747925 
	C328.168457,565.007202 329.232056,565.686218 329.277893,567.801880 
	C329.326935,570.064819 328.052399,570.521057 326.139496,570.699585 
	C319.313904,571.336426 319.310852,571.382080 319.301788,578.289551 
	C319.292603,585.287537 319.363129,592.286377 319.276062,599.283264 
	C319.225159,603.375854 321.035645,605.523560 325.162811,605.678650 
	C327.154938,605.753418 329.373169,605.520447 329.243439,608.625488 
	C329.117676,611.635437 326.833466,611.367188 324.906769,611.492432 
	C316.658813,612.028137 312.887085,609.288818 312.317657,601.156677 
	C311.737122,592.865723 311.982758,584.511414 312.022003,576.185608 
	C312.036499,573.107483 311.320190,570.929504 307.405121,570.620056 
z"/>
<path fill="#000000" opacity="1.000000" stroke="none" 
	d="
M409.723358,563.946533 
	C412.139160,569.132935 411.597229,570.131348 406.777344,570.331299 
	C397.071686,570.734009 392.579803,575.200500 392.349396,584.958801 
	C392.184479,591.942627 392.268402,598.932190 392.220642,605.919006 
	C392.204651,608.260498 392.466797,610.816223 388.996979,610.979919 
	C385.553864,611.142334 384.842499,609.015381 384.845978,606.161499 
	C384.860901,593.850769 384.768829,581.539429 384.867889,569.229553 
	C384.903015,564.863525 387.718140,563.341370 391.483521,565.742493 
	C393.076691,566.758484 394.121399,567.418518 395.837830,566.248108 
	C399.932587,563.456116 404.571350,563.376587 409.723358,563.946533 
z"/>
<path fill="#000000" opacity="1.000000" stroke="none" 
	d="
M490.397949,337.533173 
	C488.996521,350.827545 488.235077,363.808563 486.146179,376.572357 
	C483.220551,394.449158 482.665405,412.656403 478.310028,430.323303 
	C475.183441,443.005646 467.760101,451.644257 455.226044,455.577728 
	C447.147064,458.113129 439.086761,460.705048 430.341003,459.553955 
	C421.818207,458.432190 415.457550,454.352509 410.903534,447.098602 
	C406.449860,440.004578 404.492065,432.183228 403.690063,423.996613 
	C401.168488,398.256317 401.739807,372.434296 401.746613,346.629089 
	C401.750549,331.657471 394.361420,323.481140 379.366974,322.100830 
	C378.115356,320.082306 379.561035,318.288818 380.078033,316.501160 
	C382.443024,308.323029 385.940002,300.568390 389.402069,292.821899 
	C397.945618,273.705505 398.157288,253.804840 395.237701,233.590225 
	C394.621368,229.322876 393.895447,225.060272 392.969116,220.850677 
	C388.499878,200.541458 374.232239,195.181198 356.227997,197.800278 
	C348.949066,198.859177 342.023712,201.275360 335.386353,204.481049 
	C333.940582,205.179306 332.534149,206.214600 330.341797,205.643936 
	C330.379852,196.423935 332.250824,187.552933 334.635956,178.777985 
	C338.203308,165.653427 343.325226,153.255722 352.083710,142.623093 
	C364.639374,127.380875 381.017731,120.299263 400.533264,119.647026 
	C431.915955,118.598145 458.611664,129.239502 480.493195,151.694351 
	C491.887665,163.387344 500.673981,176.872177 506.621826,192.134232 
	C506.908112,192.868820 507.003204,193.677933 507.242065,194.682571 
	C502.938385,195.990814 498.782837,195.269150 494.705841,195.302948 
	C487.907440,195.359329 481.508423,196.814987 475.545746,200.057846 
	C466.854095,204.784882 462.810699,212.301498 462.298126,222.032883 
	C461.394440,239.189011 467.811890,254.440964 475.388275,269.068481 
	C484.323303,286.319061 491.890350,304.412231 504.160248,319.796448 
	C504.541809,320.274841 504.655640,320.966766 505.088654,322.041565 
	C497.916382,324.900757 492.183716,329.170593 490.397949,337.533173 
M416.373779,401.044586 
	C418.141510,403.007996 420.513855,402.857727 422.850800,402.971130 
	C432.086945,403.419312 436.046631,406.657227 438.155670,415.548279 
	C438.790710,418.225464 440.175568,420.344116 441.907562,422.461426 
	C446.644226,428.251740 453.547516,430.644775 459.687042,434.218781 
	C464.354706,436.936005 469.337311,435.587494 471.233093,430.607483 
	C473.825317,423.797882 476.440582,416.829987 474.565796,409.245758 
	C473.997864,406.948273 474.160583,404.634949 474.424896,402.297089 
	C475.475433,393.004578 479.402527,384.292236 479.027100,374.615570 
	C478.739166,367.194824 478.735840,365.733826 471.708344,364.004669 
	C466.506958,362.724823 462.688049,359.983490 460.185211,355.261505 
	C459.095795,353.206177 457.834412,351.232483 456.531708,349.302307 
	C455.160004,347.269806 454.014221,344.707977 450.875610,345.213074 
	C448.075134,345.663788 447.350128,348.113739 446.737549,350.332428 
	C444.937958,356.850372 441.463715,362.461487 438.019287,368.198456 
	C434.937378,373.331665 431.448547,375.777985 425.432251,373.842926 
	C420.579681,372.282166 418.622986,375.154266 418.130005,379.392059 
	C417.627655,383.710571 416.802734,387.929626 415.551819,392.094238 
	C414.726318,394.842651 414.537842,397.668365 416.373779,401.044586 
z"/>
<path fill="#000000" opacity="1.000000" stroke="none" 
	d="
M319.044006,286.033722 
	C321.144348,297.784546 326.149902,307.577515 334.448547,315.549957 
	C336.911072,317.915710 337.109253,319.620544 334.644623,322.094604 
	C324.996735,331.779449 316.532166,342.527008 307.448456,352.720428 
	C298.661530,362.580811 291.254486,362.664185 282.167206,353.279724 
	C272.428375,343.222382 266.910370,330.663055 261.786804,318.033051 
	C247.852005,283.682373 238.915283,247.896469 232.976593,211.389847 
	C230.206894,194.363785 230.661346,177.248764 235.714737,160.519669 
	C242.482513,138.115143 257.841492,125.373505 280.609833,121.753242 
	C300.635376,118.569092 320.381653,121.125717 339.785156,126.561646 
	C342.931732,127.443176 346.378326,127.562843 349.027435,129.535507 
	C349.688049,131.077301 348.813782,131.936707 348.018555,132.779709 
	C333.159241,148.531219 326.268372,168.000656 322.407959,188.720078 
	C319.817932,202.621155 318.726593,216.608826 320.055389,230.876312 
	C321.226044,243.445221 320.212433,256.116089 318.564819,268.708282 
	C317.837708,274.265442 317.731018,280.004211 319.044006,286.033722 
z"/>
<path fill="#000000" opacity="1.000000" stroke="none" 
	d="
M485.938110,115.666191 
	C513.483887,116.884056 536.582764,126.586922 554.255432,147.626038 
	C562.485107,157.423355 562.003235,169.299225 560.831543,180.890717 
	C556.138367,227.315170 538.584106,269.234314 515.102417,308.990295 
	C514.200134,310.517975 513.588806,313.471924 510.978577,312.008911 
	C508.795441,310.785217 510.462372,308.756012 511.298615,307.205139 
	C518.776306,293.337555 518.871582,278.423370 517.006287,263.424927 
	C515.357483,250.167389 513.757446,236.795227 516.944092,223.796783 
	C522.670959,200.436752 514.534912,181.021469 501.675751,162.553482 
	C489.485168,145.045761 474.475800,130.712250 455.154999,121.223297 
	C454.141296,120.725441 452.963135,120.345871 452.239136,118.585922 
	C463.139679,114.886543 474.342346,115.736794 485.938110,115.666191 
z"/>
<path fill="#000000" opacity="1.000000" stroke="none" 
	d="
M329.881195,289.723328 
	C327.388519,281.529083 327.729004,273.573425 328.753174,265.664520 
	C330.492828,252.229935 330.128723,238.759033 329.547943,225.310364 
	C329.325562,220.160645 331.291565,217.354630 335.629181,215.169205 
	C343.719086,211.093277 352.066895,207.683029 361.109467,206.994446 
	C372.719757,206.110352 380.220764,209.835220 382.925415,221.128036 
	C385.328430,231.161682 386.710358,241.355896 387.253784,251.627258 
	C388.014526,266.005371 384.860901,279.693420 378.967926,292.773743 
	C375.481262,300.512787 372.140625,308.322021 369.940582,316.525299 
	C368.837189,320.639526 366.212311,320.617645 363.052368,319.992279 
	C346.075897,316.632538 335.520264,306.152313 329.881195,289.723328 
M360.627106,221.898865 
	C365.975555,226.339417 370.383362,226.838486 374.380249,223.456085 
	C377.570160,220.756577 377.355652,218.205688 373.878632,215.934280 
	C370.560150,213.766434 366.882416,214.027954 363.271210,214.341415 
	C358.513214,214.754456 357.643890,216.917450 360.627106,221.898865 
z"/>
<path fill="#000000" opacity="1.000000" stroke="none" 
	d="
M506.458740,227.355881 
	C503.085266,245.482819 508.664673,262.842499 508.292572,280.409576 
	C508.148804,287.196594 507.200653,293.871460 503.586365,300.240906 
	C502.692200,299.605988 501.965668,299.361298 501.714539,298.872406 
	C493.657135,283.186066 484.523285,268.046356 477.991608,251.583389 
	C475.087097,244.262680 473.174164,236.702515 471.901398,228.993286 
	C469.698029,215.647430 476.558472,207.124924 489.991058,205.569611 
	C495.162201,204.970871 500.192230,204.788101 505.369446,205.531479 
	C508.549805,205.988129 509.318634,207.375961 508.917877,210.145432 
	C508.109406,215.732605 507.313843,221.321671 506.458740,227.355881 
M483.015289,218.733948 
	C483.692535,219.210693 484.363678,219.696396 485.048004,220.162735 
	C488.927521,222.806473 491.994476,220.788177 494.863647,218.314514 
	C496.435181,216.959641 497.812775,214.946091 496.312195,213.087662 
	C493.980103,210.199356 490.537689,211.395248 487.457367,211.675293 
	C486.814484,211.733719 486.182343,212.043579 485.571777,212.300674 
	C482.894745,213.427933 480.713898,214.825089 483.015289,218.733948 
z"/>
<path fill="#000000" opacity="1.000000" stroke="none" 
	d="
M336.703613,359.345490 
	C341.924469,357.726654 346.856781,356.278534 351.844879,355.058380 
	C359.532440,353.177887 366.017975,349.553497 370.724152,343.000824 
	C372.270416,340.847839 374.123322,338.913696 375.853485,336.894470 
	C379.707184,332.396881 383.291901,331.458008 386.982269,333.961853 
	C391.437531,336.984650 393.367676,343.770477 390.658691,347.987396 
	C385.918823,355.365631 379.307556,360.497101 370.938782,363.202789 
	C360.640076,366.532501 350.335815,366.000366 340.137299,362.750885 
	C338.643280,362.274841 336.200287,362.370667 336.703613,359.345490 
z"/>
<path fill="#000000" opacity="1.000000" stroke="none" 
	d="
M506.843506,349.625549 
	C504.731537,349.115997 502.697052,349.447021 501.394318,346.826447 
	C506.710632,343.765472 516.472534,343.128113 510.226013,332.067688 
	C526.225098,339.156311 542.099854,336.724426 558.254395,334.036713 
	C552.829773,344.788879 524.041199,352.528473 506.843506,349.625549 
z"/>
</svg>